<svg width="100" height="42" viewBox="0 0 100 42" fill="none" xmlns="http://www.w3.org/2000/svg">
<path d="M11.9286 17H9.81925V6.03517H3.60039V17H1.49107V4.14406H11.9286V17ZM14.9158 17V4.14406H19.6254C20.3649 4.14406 21.0256 4.22891 21.6075 4.39863C22.2015 4.55622 22.7046 4.8108 23.1167 5.16235C23.5289 5.5139 23.8441 5.9685 24.0623 6.52613C24.2926 7.07165 24.4078 7.72626 24.4078 8.48998C24.4078 9.19309 24.2926 9.82346 24.0623 10.3811C23.8319 10.9387 23.5046 11.4115 23.0804 11.7994C22.6561 12.1752 22.1409 12.4662 21.5347 12.6723C20.9407 12.8783 20.274 12.9814 19.5345 12.9814H17.007V17H14.9158ZM17.007 11.1085H19.4254C19.8255 11.1085 20.1952 11.06 20.5346 10.963C20.8862 10.866 21.1892 10.7145 21.4438 10.5084C21.6984 10.3023 21.8984 10.0417 22.0439 9.72648C22.2015 9.4113 22.2863 9.0355 22.2984 8.59909C22.2984 7.6899 22.0621 7.03528 21.5893 6.63524C21.1286 6.23519 20.4498 6.03517 19.5527 6.03517H17.007V11.1085ZM32.2694 17.1273C31.2633 17.1273 30.3722 16.9636 29.5964 16.6363C28.8327 16.2969 28.1902 15.8362 27.6689 15.2544C27.1477 14.6725 26.7476 13.9815 26.4688 13.1814C26.2021 12.3813 26.0687 11.5085 26.0687 10.5629C26.0687 9.60526 26.2082 8.72637 26.487 7.92629C26.7658 7.11408 27.1658 6.41703 27.6871 5.83515C28.2205 5.25327 28.8691 4.79867 29.6328 4.47136C30.4086 4.14406 31.2936 3.9804 32.2876 3.9804C33.2817 3.9804 34.1605 4.14406 34.9243 4.47136C35.7001 4.78655 36.3487 5.23508 36.8699 5.81697C37.4033 6.39885 37.8034 7.09589 38.0701 7.9081C38.3489 8.70819 38.4883 9.58707 38.4883 10.5448C38.4883 11.4903 38.3489 12.3692 38.0701 13.1814C37.8034 13.9815 37.4033 14.6725 36.8699 15.2544C36.3487 15.8362 35.7001 16.2969 34.9243 16.6363C34.1484 16.9636 33.2635 17.1273 32.2694 17.1273ZM32.2876 5.87152C31.5966 5.87152 30.9966 5.9988 30.4874 6.25338C29.9904 6.50795 29.5722 6.84738 29.2327 7.27167C28.8933 7.69596 28.6387 8.19298 28.469 8.76274C28.3114 9.3325 28.2326 9.9265 28.2326 10.5448C28.2326 11.163 28.3114 11.757 28.469 12.3268C28.6387 12.8844 28.8872 13.3814 29.2145 13.8178C29.554 14.2542 29.9783 14.5997 30.4874 14.8543C30.9966 15.1089 31.5966 15.2362 32.2876 15.2362C32.9665 15.2362 33.5605 15.1149 34.0696 14.8725C34.5788 14.6179 34.997 14.2785 35.3243 13.8542C35.6637 13.4299 35.9122 12.939 36.0698 12.3813C36.2395 11.8116 36.3244 11.2054 36.3244 10.5629C36.3244 9.93256 36.2395 9.33856 36.0698 8.78092C35.9122 8.21117 35.6637 7.71414 35.3243 7.28985C34.997 6.85344 34.5788 6.50795 34.0696 6.25338C33.5726 5.9988 32.9786 5.87152 32.2876 5.87152ZM40.735 17V4.14406H45.8446C46.3901 4.14406 46.9114 4.19255 47.4084 4.28953C47.9176 4.38651 48.36 4.55622 48.7358 4.79867C49.1238 5.04112 49.4329 5.36843 49.6632 5.7806C49.8935 6.19276 50.0087 6.72009 50.0087 7.36259C50.0087 7.98084 49.8814 8.53241 49.6268 9.01731C49.3723 9.50221 48.954 9.88407 48.3722 10.1629C49.1601 10.3569 49.736 10.7266 50.0996 11.2721C50.4633 11.8055 50.6451 12.4601 50.6451 13.236C50.6451 14.0482 50.4815 14.7028 50.1542 15.1998C49.8269 15.6847 49.4086 16.0605 48.8995 16.3272C48.3904 16.5939 47.8267 16.7757 47.2084 16.8727C46.6023 16.9576 46.0204 17 45.4628 17H40.735ZM42.8443 6.03517V9.56283H45.2991C45.6022 9.56283 45.9113 9.53858 46.2265 9.49009C46.5538 9.4416 46.8447 9.35068 47.0993 9.21733C47.3539 9.07186 47.56 8.88397 47.7176 8.65364C47.8873 8.41119 47.9721 8.096 47.9721 7.70808C47.9721 7.33228 47.9054 7.03528 47.7721 6.81707C47.6388 6.58675 47.463 6.41703 47.2448 6.30793C47.0266 6.1867 46.772 6.11397 46.4811 6.08972C46.2022 6.05335 45.9113 6.03517 45.6082 6.03517H42.8443ZM42.8443 15.1271H45.4264C45.7537 15.1271 46.0992 15.1089 46.4629 15.0725C46.8387 15.024 47.1781 14.9331 47.4812 14.7998C47.7842 14.6543 48.0327 14.4543 48.2267 14.1997C48.4328 13.9451 48.5358 13.5996 48.5358 13.1632C48.5358 12.7995 48.457 12.5025 48.2994 12.2722C48.154 12.0298 47.96 11.8479 47.7176 11.7267C47.4751 11.5934 47.2023 11.5024 46.8993 11.4539C46.6083 11.4055 46.3113 11.3812 46.0083 11.3812C45.7416 11.3812 45.4749 11.3812 45.2082 11.3812L43.6444 11.3994C43.3777 11.3994 43.111 11.3994 42.8443 11.3994V15.1271ZM52.9349 17V4.14406H61.8631V6.03517H55.0442V9.69011H61.0812V11.5994H55.0442V15.1271H61.8631V17H52.9349ZM64.1399 17V4.14406H68.8495C69.589 4.14406 70.2497 4.22891 70.8316 4.39863C71.4256 4.55622 71.9287 4.8108 72.3408 5.16235C72.753 5.5139 73.0682 5.9685 73.2864 6.52613C73.5167 7.07165 73.6319 7.72626 73.6319 8.48998C73.6319 9.19309 73.5167 9.82346 73.2864 10.3811C73.0561 10.9387 72.7287 11.4115 72.3045 11.7994C71.8802 12.1752 71.365 12.4662 70.7588 12.6723C70.1648 12.8783 69.4981 12.9814 68.7586 12.9814H66.2311V17H64.1399ZM66.2311 11.1085H68.6495C69.0496 11.1085 69.4193 11.06 69.7587 10.963C70.1103 10.866 70.4133 10.7145 70.6679 10.5084C70.9225 10.3023 71.1225 10.0417 71.268 9.72648C71.4256 9.4113 71.5104 9.0355 71.5226 8.59909C71.5226 7.6899 71.2862 7.03528 70.8134 6.63524C70.3527 6.23519 69.6739 6.03517 68.7768 6.03517H66.2311V11.1085ZM77.9338 17H75.8244V4.14406H77.9338V9.76285H79.5885L83.5526 4.14406H85.971L81.3887 10.3811L86.0255 17H83.5707L79.7885 11.6358H77.9338V17ZM93.7963 4.14406L98.6332 17H96.3238L95.3783 14.3997H89.5413L88.5775 17H86.2864L91.1596 4.14406H93.7963ZM94.7237 12.5086L92.4689 6.23519L90.1959 12.5086H94.7237Z" fill="#008EFF"/>
<path d="M17.4056 42.0001H14.0054V37.6208H3.63846V42.0001H0.238281V34.4892H0.856495C1.14182 34.4892 1.38752 34.4647 1.5936 34.4158C1.79967 34.3668 1.98989 34.269 2.16425 34.1222C2.27522 34.008 2.37033 33.8531 2.44958 33.6573C2.54469 33.4616 2.61603 33.2577 2.66358 33.0457C2.71114 32.8337 2.75076 32.6298 2.78247 32.434C2.81417 32.222 2.83795 32.0263 2.8538 31.8469C2.94891 30.7704 3.01232 29.6694 3.04402 28.544C3.09157 27.4186 3.1312 26.3095 3.16291 25.2167C3.21046 23.6019 3.23424 21.9627 3.23424 20.299H15.3607V34.4892H17.4056V42.0001ZM11.913 34.4892V23.4551H6.51553L6.37286 29.0088C6.37286 29.384 6.36494 29.8162 6.34908 30.3055C6.33323 30.7948 6.30153 31.2923 6.25397 31.7979C6.20642 32.3036 6.14301 32.7929 6.06376 33.2659C5.9845 33.7389 5.87354 34.1466 5.73087 34.4892H11.913Z" fill="white"/>
<path d="M26.8497 20.0789C28.1337 20.0789 29.2908 20.2909 30.3212 20.715C31.3516 21.139 32.2234 21.7425 32.9367 22.5254C33.65 23.292 34.1969 24.2136 34.5774 25.2901C34.9578 26.3665 35.148 27.5572 35.148 28.8621C35.148 30.1343 34.9578 31.3168 34.5774 32.4096C34.1969 33.5024 33.65 34.4484 32.9367 35.2476C32.2234 36.0468 31.3436 36.6748 30.2974 37.1315C29.2671 37.5718 28.0941 37.7839 26.7784 37.7676C25.4627 37.7676 24.2897 37.5474 23.2593 37.107C22.2448 36.6503 21.3809 36.0305 20.6676 35.2476C19.9701 34.4647 19.4311 33.535 19.0507 32.4585C18.6861 31.382 18.5038 30.2077 18.5038 28.9354C18.5038 27.6306 18.694 26.4399 19.0745 25.3635C19.4708 24.2707 20.0256 23.3328 20.7389 22.5499C21.4681 21.767 22.3478 21.1635 23.3782 20.7394C24.4085 20.299 25.5657 20.0789 26.8497 20.0789ZM22.0467 28.8865C22.0467 29.6368 22.1418 30.3545 22.332 31.0395C22.5381 31.7082 22.8313 32.3036 23.2118 32.8255C23.608 33.3474 24.1074 33.7715 24.7097 34.0977C25.3121 34.4076 26.0175 34.5707 26.8259 34.587C27.6027 34.6033 28.2922 34.4647 28.8946 34.1711C29.4969 33.8612 29.9962 33.4453 30.3925 32.9234C30.7888 32.3851 31.09 31.7735 31.2961 31.0884C31.5022 30.3871 31.6052 29.6613 31.6052 28.911C31.6052 28.177 31.5022 27.4675 31.2961 26.7825C31.1059 26.0974 30.8126 25.4939 30.4163 24.972C30.0359 24.4338 29.5445 24.0097 28.9421 23.6998C28.3398 23.3899 27.6344 23.2349 26.8259 23.2349C26.0333 23.2349 25.3359 23.3899 24.7335 23.6998C24.1311 24.0097 23.6318 24.4256 23.2355 24.9475C22.8392 25.4695 22.5381 26.073 22.332 26.758C22.1418 27.4267 22.0467 28.1362 22.0467 28.8865Z" fill="white"/>
<path d="M42.1104 23.4551C42.0787 24.5316 42.0628 25.6244 42.0628 26.7335C42.0628 27.8263 42.039 28.911 41.9915 29.9875C41.9756 30.3952 41.9598 30.8275 41.9439 31.2842C41.9281 31.7409 41.8884 32.2057 41.825 32.6787C41.7775 33.1354 41.6903 33.5921 41.5635 34.0488C41.4525 34.5055 41.294 34.9377 41.0879 35.3455C40.8502 35.7859 40.5569 36.1528 40.2082 36.4464C39.8753 36.74 39.5028 36.9765 39.0906 37.1559C38.6943 37.3353 38.2663 37.4658 37.8066 37.5474C37.3469 37.6126 36.8793 37.6452 36.4038 37.6452H35.9044V34.5136H36.2135C36.5147 34.5136 36.7842 34.4565 37.022 34.3424C37.2598 34.2282 37.4658 34.0814 37.6402 33.902C37.8146 33.7226 37.9572 33.5268 38.0682 33.3148C38.1791 33.0865 38.2584 32.8663 38.306 32.6542C38.4011 32.2791 38.4724 31.855 38.52 31.382C38.5675 30.8927 38.5992 30.3952 38.6151 29.8896C38.6309 29.3677 38.6468 28.8621 38.6626 28.3727C38.6785 27.8834 38.6943 27.443 38.7102 27.0516C38.7419 25.9751 38.7498 24.8986 38.734 23.8221C38.734 22.7293 38.7498 21.555 38.7815 20.299H50.694V37.6208H47.2463V23.4551H42.1104Z" fill="white"/>
<path d="M54.2614 37.6208V20.299H65.9123V23.4551H57.7091V37.6208H54.2614Z" fill="white"/>
<path d="M75.5191 20.0789C76.8031 20.0789 77.9603 20.2909 78.9907 20.715C80.021 21.139 80.8929 21.7425 81.6062 22.5254C82.3195 23.292 82.8664 24.2136 83.2468 25.2901C83.6273 26.3665 83.8175 27.5572 83.8175 28.8621C83.8175 30.1343 83.6273 31.3168 83.2468 32.4096C82.8664 33.5024 82.3195 34.4484 81.6062 35.2476C80.8929 36.0468 80.0131 36.6748 78.9669 37.1315C77.9365 37.5718 76.7635 37.7839 75.4478 37.7676C74.1321 37.7676 72.9591 37.5474 71.9288 37.107C70.9143 36.6503 70.0503 36.0305 69.337 35.2476C68.6395 34.4647 68.1006 33.535 67.7202 32.4585C67.3556 31.382 67.1733 30.2077 67.1733 28.9354C67.1733 27.6306 67.3635 26.4399 67.7439 25.3635C68.1402 24.2707 68.695 23.3328 69.4083 22.5499C70.1375 21.767 71.0173 21.1635 72.0476 20.7394C73.078 20.299 74.2352 20.0789 75.5191 20.0789ZM70.7161 28.8865C70.7161 29.6368 70.8112 30.3545 71.0014 31.0395C71.2075 31.7082 71.5008 32.3036 71.8812 32.8255C72.2775 33.3474 72.7768 33.7715 73.3792 34.0977C73.9815 34.4076 74.6869 34.5707 75.4954 34.587C76.2721 34.6033 76.9616 34.4647 77.564 34.1711C78.1664 33.8612 78.6657 33.4453 79.062 32.9234C79.4583 32.3851 79.7595 31.7735 79.9655 31.0884C80.1716 30.3871 80.2746 29.6613 80.2746 28.911C80.2746 28.177 80.1716 27.4675 79.9655 26.7825C79.7753 26.0974 79.4821 25.4939 79.0858 24.972C78.7053 24.4338 78.2139 24.0097 77.6116 23.6998C77.0092 23.3899 76.3038 23.2349 75.4954 23.2349C74.7028 23.2349 74.0053 23.3899 73.403 23.6998C72.8006 24.0097 72.3013 24.4256 71.905 24.9475C71.5087 25.4695 71.2075 26.073 71.0014 26.758C70.8112 27.4267 70.7161 28.1362 70.7161 28.8865Z" fill="white"/>
<path d="M86.444 37.6208V20.299H93.9101C94.6868 20.299 95.4001 20.3806 96.05 20.5437C96.7158 20.7068 97.2944 21.0004 97.7858 21.4245C98.1821 21.7507 98.515 22.1829 98.7844 22.7212C99.0698 23.2431 99.2124 23.8792 99.2124 24.6295C99.2283 25.4287 99.0856 26.1382 98.7844 26.758C98.4991 27.3778 98.0077 27.8997 97.3102 28.3238C97.8017 28.4706 98.2217 28.6908 98.5704 28.9844C98.9192 29.278 99.1966 29.6205 99.4027 30.0119C99.6246 30.4034 99.7831 30.8275 99.8782 31.2842C99.9733 31.7409 100.013 32.2139 99.9971 32.7032C99.9654 33.4861 99.7593 34.2119 99.3789 34.8806C99.0143 35.533 98.5308 36.0631 97.9285 36.4709C97.2151 36.9765 96.4305 37.2946 95.5745 37.4251C94.7185 37.5555 93.8704 37.6208 93.0303 37.6208H86.444ZM92.9352 27.3207C93.2839 27.3207 93.6327 27.3044 93.9814 27.2718C94.3301 27.2228 94.6551 27.1087 94.9563 26.9293C95.2099 26.7662 95.4239 26.546 95.5983 26.2687C95.7726 25.9914 95.8677 25.6652 95.8836 25.2901C95.8995 24.8986 95.836 24.5806 95.6934 24.3359C95.5507 24.0912 95.3763 23.9037 95.1703 23.7732C94.9166 23.6101 94.6234 23.5204 94.2905 23.5041C93.9576 23.4714 93.6168 23.4551 93.2681 23.4551H89.8917V27.3207H92.9352ZM89.8917 34.4892H93.0303C93.49 34.4892 93.9735 34.4647 94.4807 34.4158C95.0038 34.3505 95.4477 34.1793 95.8123 33.902C96.0342 33.7226 96.2165 33.5024 96.3592 33.2414C96.5018 32.9641 96.5731 32.6216 96.5731 32.2139C96.5731 31.8387 96.4939 31.5207 96.3354 31.2597C96.1769 30.9987 95.9787 30.803 95.7409 30.6725C95.4715 30.4931 95.1624 30.3871 94.8136 30.3545C94.4807 30.3218 94.132 30.3055 93.7674 30.3055L89.8917 30.33V34.4892Z" fill="white"/>
</svg>
