<svg width="84" height="35" viewBox="0 0 84 35" fill="none" xmlns="http://www.w3.org/2000/svg">
<path d="M10.02 14H8.24817V4.78954H3.02433V14H1.2525V3.20101H10.02V14ZM12.5293 14V3.20101H16.4854C17.1065 3.20101 17.6615 3.27229 18.1503 3.41485C18.6492 3.54723 19.0718 3.76107 19.418 4.05637C19.7643 4.35168 20.029 4.73354 20.2123 5.20195C20.4058 5.66018 20.5025 6.21006 20.5025 6.85159C20.5025 7.4422 20.4058 7.97171 20.2123 8.44012C20.0188 8.90854 19.7439 9.30567 19.3875 9.63152C19.0311 9.9472 18.5983 10.1916 18.0892 10.3647C17.5902 10.5378 17.0301 10.6244 16.409 10.6244H14.2858V14H12.5293ZM14.2858 9.0511H16.3173C16.6534 9.0511 16.964 9.01037 17.2491 8.9289C17.5444 8.84744 17.799 8.72015 18.0128 8.54704C18.2266 8.37393 18.3947 8.155 18.5169 7.89024C18.6492 7.62549 18.7205 7.30982 18.7307 6.94323C18.7307 6.17951 18.5321 5.62963 18.135 5.2936C17.748 4.95756 17.1778 4.78954 16.4243 4.78954H14.2858V9.0511ZM27.1063 14.1069C26.2611 14.1069 25.5127 13.9695 24.861 13.6945C24.2195 13.4094 23.6798 13.0224 23.2419 12.5337C22.804 12.0449 22.468 11.4645 22.2338 10.7924C22.0098 10.1203 21.8977 9.38713 21.8977 8.59287C21.8977 7.78842 22.0148 7.05015 22.2491 6.37808C22.4833 5.69582 22.8193 5.11031 23.2572 4.62153C23.7052 4.13274 24.25 3.75088 24.8915 3.47595C25.5432 3.20101 26.2866 3.06354 27.1216 3.06354C27.9566 3.06354 28.6948 3.20101 29.3364 3.47595C29.9881 3.7407 30.5329 4.11747 30.9707 4.60625C31.4188 5.09503 31.7548 5.68055 31.9788 6.36281C32.213 7.03488 32.3302 7.77314 32.3302 8.57759C32.3302 9.37186 32.213 10.1101 31.9788 10.7924C31.7548 11.4645 31.4188 12.0449 30.9707 12.5337C30.5329 13.0224 29.9881 13.4094 29.3364 13.6945C28.6847 13.9695 27.9413 14.1069 27.1063 14.1069ZM27.1216 4.65207C26.5412 4.65207 26.0371 4.75899 25.6094 4.97284C25.1919 5.18668 24.8406 5.4718 24.5555 5.8282C24.2704 6.1846 24.0565 6.6021 23.914 7.0807C23.7816 7.5593 23.7154 8.05826 23.7154 8.57759C23.7154 9.09692 23.7816 9.59588 23.914 10.0745C24.0565 10.5429 24.2653 10.9604 24.5402 11.327C24.8253 11.6936 25.1817 11.9838 25.6094 12.1976C26.0371 12.4115 26.5412 12.5184 27.1216 12.5184C27.6918 12.5184 28.1908 12.4166 28.6185 12.2129C29.0462 11.9991 29.3975 11.7139 29.6724 11.3575C29.9575 11.0011 30.1663 10.5887 30.2987 10.1203C30.4412 9.64171 30.5125 9.13256 30.5125 8.59287C30.5125 8.06335 30.4412 7.56439 30.2987 7.09598C30.1663 6.61738 29.9575 6.19988 29.6724 5.84348C29.3975 5.47689 29.0462 5.18668 28.6185 4.97284C28.201 4.75899 27.702 4.65207 27.1216 4.65207ZM34.2174 14V3.20101H38.5095C38.9677 3.20101 39.4056 3.24174 39.8231 3.3232C40.2508 3.40467 40.6224 3.54723 40.9381 3.75089C41.264 3.95454 41.5236 4.22948 41.7171 4.5757C41.9106 4.92192 42.0073 5.36488 42.0073 5.90457C42.0073 6.4239 41.9004 6.88723 41.6866 7.29454C41.4727 7.70186 41.1214 8.02262 40.6326 8.25683C41.2945 8.41976 41.7782 8.73034 42.0837 9.18857C42.3892 9.63662 42.5419 10.1865 42.5419 10.8382C42.5419 11.5205 42.4044 12.0703 42.1295 12.4878C41.8546 12.8952 41.5033 13.2108 41.0756 13.4348C40.6479 13.6589 40.1744 13.8116 39.6551 13.8931C39.1459 13.9644 38.6571 14 38.1887 14H34.2174ZM35.9892 4.78954V7.75278H38.0512C38.3058 7.75278 38.5655 7.73241 38.8302 7.69168C39.1052 7.65095 39.3496 7.57457 39.5634 7.46256C39.7773 7.34037 39.9504 7.18253 40.0827 6.98906C40.2253 6.7854 40.2966 6.52064 40.2966 6.19479C40.2966 5.87912 40.2406 5.62963 40.1286 5.44634C40.0166 5.25287 39.8689 5.11031 39.6856 5.01866C39.5023 4.91683 39.2885 4.85573 39.0441 4.83537C38.8099 4.80482 38.5655 4.78954 38.3109 4.78954H35.9892ZM35.9892 12.4267H38.1582C38.4331 12.4267 38.7233 12.4115 39.0288 12.3809C39.3445 12.3402 39.6296 12.2638 39.8842 12.1518C40.1387 12.0296 40.3475 11.8616 40.5104 11.6477C40.6835 11.4339 40.7701 11.1437 40.7701 10.7771C40.7701 10.4716 40.7039 10.2221 40.5715 10.0287C40.4493 9.825 40.2864 9.67226 40.0827 9.57043C39.8791 9.45841 39.65 9.38204 39.3954 9.34131C39.151 9.30058 38.9015 9.28021 38.6469 9.28021C38.4229 9.28021 38.1989 9.28021 37.9749 9.28021L36.6613 9.29549C36.4373 9.29549 36.2132 9.29549 35.9892 9.29549V12.4267ZM44.4653 14V3.20101H51.965V4.78954H46.2371V7.8597H51.3082V9.46351H46.2371V12.4267H51.965V14H44.4653ZM53.8775 14V3.20101H57.8336C58.4548 3.20101 59.0097 3.27229 59.4985 3.41485C59.9975 3.54723 60.4201 3.76107 60.7663 4.05637C61.1125 4.35168 61.3773 4.73354 61.5606 5.20195C61.754 5.66018 61.8508 6.21006 61.8508 6.85159C61.8508 7.4422 61.754 7.97171 61.5606 8.44012C61.3671 8.90854 61.0921 9.30567 60.7357 9.63152C60.3793 9.9472 59.9466 10.1916 59.4374 10.3647C58.9385 10.5378 58.3784 10.6244 57.7572 10.6244H55.6341V14H53.8775ZM55.6341 9.0511H57.6656C58.0016 9.0511 58.3122 9.01037 58.5973 8.9289C58.8926 8.84744 59.1472 8.72015 59.361 8.54704C59.5749 8.37393 59.7429 8.155 59.8651 7.89024C59.9975 7.62549 60.0688 7.30982 60.0789 6.94323C60.0789 6.17951 59.8804 5.62963 59.4832 5.2936C59.0963 4.95756 58.526 4.78954 57.7725 4.78954H55.6341V9.0511ZM65.4644 14H63.6925V3.20101H65.4644V7.92079H66.8543L70.1841 3.20101H72.2156L68.3665 8.44012L72.2615 14H70.1994L67.0223 9.49406H65.4644V14ZM78.7889 3.20101L82.8519 14H80.912L80.1177 11.8158H75.2147L74.4051 14H72.4806L76.5741 3.20101H78.7889ZM79.5679 10.2272L77.6738 4.95756L75.7645 10.2272H79.5679Z" fill="#008EFF"/>
<path d="M14.6198 35.0002H11.7636V31.3507H3.05537V35.0002H0.199219V28.741H0.718518C0.958195 28.741 1.16458 28.7206 1.33768 28.6798C1.51078 28.6391 1.67057 28.5575 1.81704 28.4352C1.91024 28.34 1.99014 28.2109 2.05671 28.0478C2.1366 27.8847 2.19652 27.7148 2.23647 27.5381C2.27642 27.3614 2.3097 27.1915 2.33634 27.0284C2.36297 26.8517 2.38294 26.6886 2.39625 26.5391C2.47615 25.642 2.52941 24.7246 2.55604 23.7867C2.59598 22.8489 2.62927 21.9246 2.6559 21.0139C2.69585 19.6683 2.71582 18.3023 2.71582 16.9159H12.9021V28.741H14.6198V35.0002ZM10.006 28.741V19.546H5.4721L5.35227 24.1741C5.35227 24.4867 5.34561 24.8469 5.33229 25.2546C5.31898 25.6624 5.29235 26.077 5.2524 26.4983C5.21245 26.9197 5.15919 27.3274 5.09262 27.7216C5.02604 28.1158 4.93283 28.4556 4.81299 28.741H10.006Z" fill="#161B23"/>
<path d="M22.5528 16.7324C23.6314 16.7324 24.6034 16.9091 25.4689 17.2625C26.3344 17.6159 27.0667 18.1188 27.6659 18.7712C28.2651 19.4101 28.7245 20.178 29.0441 21.0751C29.3636 21.9722 29.5234 22.9644 29.5234 24.0518C29.5234 25.1119 29.3636 26.0974 29.0441 27.008C28.7245 27.9187 28.2651 28.707 27.6659 29.373C27.0667 30.0391 26.3277 30.5624 25.4489 30.9429C24.5834 31.3099 23.5981 31.4866 22.4929 31.473C21.3877 31.473 20.4024 31.2895 19.5369 30.9225C18.6847 30.542 17.959 30.0255 17.3598 29.373C16.7739 28.7206 16.3212 27.9459 16.0016 27.0488C15.6954 26.1517 15.5423 25.1731 15.5423 24.1129C15.5423 23.0255 15.7021 22.0333 16.0216 21.1363C16.3545 20.2256 16.8205 19.444 17.4197 18.7916C18.0322 18.1392 18.7712 17.6363 19.6367 17.2829C20.5022 16.9159 21.4743 16.7324 22.5528 16.7324ZM18.5183 24.0721C18.5183 24.6974 18.5981 25.2954 18.7579 25.8663C18.931 26.4236 19.1774 26.9197 19.4969 27.3546C19.8298 27.7896 20.2493 28.143 20.7552 28.4148C21.2612 28.6731 21.8538 28.809 22.5328 28.8226C23.1853 28.8362 23.7645 28.7206 24.2705 28.476C24.7765 28.2177 25.1959 27.8711 25.5288 27.4362C25.8617 26.9876 26.1147 26.4779 26.2878 25.9071C26.4609 25.3226 26.5474 24.7178 26.5474 24.0925C26.5474 23.4809 26.4609 22.8896 26.2878 22.3188C26.128 21.7479 25.8816 21.245 25.5488 20.81C25.2292 20.3615 24.8164 20.0081 24.3104 19.7499C23.8045 19.4916 23.2119 19.3625 22.5328 19.3625C21.8671 19.3625 21.2812 19.4916 20.7752 19.7499C20.2692 20.0081 19.8498 20.3547 19.5169 20.7897C19.184 21.2246 18.931 21.7275 18.7579 22.2984C18.5981 22.8556 18.5183 23.4469 18.5183 24.0721Z" fill="#161B23"/>
<path d="M35.3718 19.546C35.3451 20.4431 35.3318 21.3537 35.3318 22.278C35.3318 23.1887 35.3118 24.0925 35.2719 24.9896C35.2586 25.3294 35.2453 25.6896 35.2319 26.0702C35.2186 26.4508 35.1853 26.8381 35.1321 27.2323C35.0921 27.6129 35.0189 27.9935 34.9124 28.374C34.8192 28.7546 34.686 29.1148 34.5129 29.4546C34.3132 29.8216 34.0669 30.1274 33.7739 30.3721C33.4943 30.6167 33.1814 30.8138 32.8352 30.9633C32.5023 31.1128 32.1428 31.2216 31.7566 31.2895C31.3705 31.3439 30.9777 31.3711 30.5782 31.3711H30.1588V28.7614H30.4184C30.6714 28.7614 30.8978 28.7138 31.0975 28.6187C31.2973 28.5235 31.4704 28.4012 31.6168 28.2517C31.7633 28.1022 31.8831 27.9391 31.9763 27.7624C32.0695 27.5721 32.1361 27.3886 32.1761 27.2119C32.256 26.8993 32.3159 26.5459 32.3558 26.1517C32.3958 25.744 32.4224 25.3294 32.4357 24.9081C32.449 24.4731 32.4623 24.0518 32.4757 23.644C32.489 23.2362 32.5023 22.8692 32.5156 22.543C32.5422 21.646 32.5489 20.7489 32.5356 19.8518C32.5356 18.9411 32.5489 17.9625 32.5755 16.9159H42.582V31.3507H39.6859V19.546H35.3718Z" fill="#161B23"/>
<path d="M45.5786 31.3507V16.9159H55.3654V19.546H48.4747V31.3507H45.5786Z" fill="#161B23"/>
<path d="M63.4351 16.7324C64.5137 16.7324 65.4857 16.9091 66.3512 17.2625C67.2167 17.6159 67.9491 18.1188 68.5482 18.7712C69.1474 19.4101 69.6068 20.178 69.9264 21.0751C70.246 21.9722 70.4057 22.9644 70.4057 24.0518C70.4057 25.1119 70.246 26.0974 69.9264 27.008C69.6068 27.9187 69.1474 28.707 68.5482 29.373C67.9491 30.0391 67.2101 30.5624 66.3312 30.9429C65.4657 31.3099 64.4804 31.4866 63.3752 31.473C62.2701 31.473 61.2847 31.2895 60.4192 30.9225C59.567 30.542 58.8413 30.0255 58.2421 29.373C57.6563 28.7206 57.2036 27.9459 56.884 27.0488C56.5777 26.1517 56.4246 25.1731 56.4246 24.1129C56.4246 23.0255 56.5844 22.0333 56.904 21.1363C57.2368 20.2256 57.7029 19.444 58.3021 18.7916C58.9146 18.1392 59.6536 17.6363 60.5191 17.2829C61.3846 16.9159 62.3566 16.7324 63.4351 16.7324ZM59.4006 24.0721C59.4006 24.6974 59.4805 25.2954 59.6403 25.8663C59.8134 26.4236 60.0597 26.9197 60.3793 27.3546C60.7122 27.7896 61.1316 28.143 61.6376 28.4148C62.1436 28.6731 62.7361 28.809 63.4152 28.8226C64.0676 28.8362 64.6468 28.7206 65.1528 28.476C65.6588 28.2177 66.0782 27.8711 66.4111 27.4362C66.744 26.9876 66.997 26.4779 67.1701 25.9071C67.3432 25.3226 67.4298 24.7178 67.4298 24.0925C67.4298 23.4809 67.3432 22.8896 67.1701 22.3188C67.0103 21.7479 66.764 21.245 66.4311 20.81C66.1115 20.3615 65.6988 20.0081 65.1928 19.7499C64.6868 19.4916 64.0943 19.3625 63.4152 19.3625C62.7494 19.3625 62.1635 19.4916 61.6575 19.7499C61.1516 20.0081 60.7321 20.3547 60.3992 20.7897C60.0664 21.2246 59.8134 21.7275 59.6403 22.2984C59.4805 22.8556 59.4006 23.4469 59.4006 24.0721Z" fill="#161B23"/>
<path d="M72.612 31.3507V16.9159H78.8835C79.536 16.9159 80.1352 16.9839 80.6811 17.1198C81.2403 17.2557 81.7263 17.5004 82.1391 17.8538C82.472 18.1256 82.7516 18.4858 82.978 18.9343C83.2177 19.3693 83.3375 19.8994 83.3375 20.5246C83.3508 21.1906 83.231 21.7819 82.978 22.2984C82.7383 22.8149 82.3255 23.2498 81.7397 23.6032C82.1524 23.7255 82.5053 23.909 82.7982 24.1537C83.0912 24.3983 83.3242 24.6838 83.4973 25.01C83.6837 25.3362 83.8169 25.6896 83.8968 26.0702C83.9766 26.4508 84.0099 26.8449 83.9966 27.2527C83.97 27.9051 83.7969 28.5099 83.4773 29.0672C83.1711 29.6109 82.7649 30.0526 82.259 30.3925C81.6598 30.8138 81.0007 31.0789 80.2816 31.1876C79.5626 31.2963 78.8502 31.3507 78.1445 31.3507H72.612ZM78.0646 22.7673C78.3576 22.7673 78.6505 22.7537 78.9434 22.7265C79.2364 22.6857 79.5093 22.5906 79.7623 22.4411C79.9754 22.3052 80.1551 22.1217 80.3016 21.8906C80.4481 21.6595 80.528 21.3877 80.5413 21.0751C80.5546 20.7489 80.5013 20.4838 80.3815 20.28C80.2617 20.0761 80.1152 19.9198 79.9421 19.811C79.729 19.6751 79.4827 19.6003 79.2031 19.5868C78.9235 19.5596 78.6372 19.546 78.3442 19.546H75.5081V22.7673H78.0646ZM75.5081 28.741H78.1445C78.5307 28.741 78.9368 28.7206 79.3629 28.6798C79.8023 28.6255 80.1751 28.4828 80.4814 28.2517C80.6678 28.1022 80.8209 27.9187 80.9408 27.7012C81.0606 27.4702 81.1205 27.1847 81.1205 26.8449C81.1205 26.5323 81.0539 26.2673 80.9208 26.0498C80.7876 25.8323 80.6212 25.6692 80.4214 25.5605C80.1951 25.411 79.9354 25.3226 79.6425 25.2954C79.3629 25.2682 79.0699 25.2546 78.7637 25.2546L75.5081 25.275V28.741Z" fill="#161B23"/>
</svg>
